<?xml version="1.0" encoding="UTF-8"?>
<svg id="Layer_2" data-name="Layer 2" xmlns="http://www.w3.org/2000/svg" viewBox="0 0 10 5.49">
  <defs>
    <style>
      .cls-1 {
        fill: #010101;
      }
    </style>
  </defs>
  <g id="Layer_1-2" data-name="Layer 1">
    <g>
      <path class="cls-1" d="m.79.12c-.08.05-.2.15-.27.23-.11.14-.11.19-.13.95-.01.8-.01.81-.14.91-.07.05-.15.1-.19.1-.05,0-.07.1-.07.46v.46l.14.05c.08.02.17.09.19.14.03.05.05.41.05.81,0,.65,0,.73.11.9.15.27.37.37.79.37h.35v-.48c0-.47,0-.48-.11-.48-.06,0-.15-.03-.21-.07-.08-.06-.1-.15-.12-.75l-.02-.69-.17-.15c-.12-.11-.14-.15-.1-.17.04-.01.12-.07.18-.14.11-.11.11-.15.11-.72,0-.73.06-.89.33-.89.11,0,.11,0,.1-.45V.06s-.35-.01-.35-.01c-.25,0-.38,0-.49.07Z"/>
      <path class="cls-1" d="m8.36.47c0,.46,0,.46.12.46.23,0,.27.11.27.69,0,.65.05.87.23.99.07.04.14.09.14.09s-.06.09-.16.18l-.18.16-.02.67c-.02.72-.05.79-.29.79-.11,0-.11,0-.11.49v.49l.4-.02c.33,0,.43-.03.55-.13.25-.19.3-.4.3-1.17,0-.37.02-.72.05-.77.02-.05.11-.11.19-.14l.14-.05v-.46c0-.36-.01-.46-.07-.46-.03,0-.12-.04-.19-.1l-.13-.1v-.73c0-.63-.01-.75-.1-.92-.15-.31-.29-.38-.76-.41l-.4-.02v.47Z"/>
      <path class="cls-1" d="m2.66.63v.4l1.59,1.59c.88.87,1.59,1.61,1.59,1.64,0,.02-.12.17-.27.31l-.27.27.19.19.2.19.31-.33.31-.33.49.46c.31.29.53.46.6.46.14,0,.46-.34.46-.48,0-.08-.14-.26-.47-.59l-.46-.48.32-.32c.18-.17.32-.33.32-.35,0-.05-.31-.34-.37-.34-.02,0-.16.12-.31.27l-.27.27-1.62-1.62L3.41.23h-.75v.4Z"/>
      <path class="cls-1" d="m5.93.85c-.34.35-.62.65-.62.67s.17.19.38.4l.38.37.64-.65.64-.65v-.38s-.03-.38-.03-.38h-.38s-.38-.03-.38-.03l-.62.64Z"/>
      <path class="cls-1" d="m2.56,3.08c-.09.09-.16.17-.16.18,0,0,.14.17.31.35l.31.33-.46.47c-.33.33-.46.5-.46.58,0,.14.32.47.46.47.06,0,.29-.18.57-.46.26-.25.47-.46.48-.46s.16.14.34.32l.31.33.2-.19.19-.19-.27-.27c-.14-.14-.27-.29-.27-.31,0-.02.13-.17.28-.32l.28-.28-.36-.36c-.2-.2-.38-.36-.41-.36s-.17.12-.31.27l-.26.27-.27-.27c-.15-.14-.29-.27-.31-.27-.03,0-.12.07-.2.16Z"/>
    </g>
  </g>
</svg>